<svg width="64" height="69" viewBox="0 0 64 69" fill="none" xmlns="http://www.w3.org/2000/svg">
<g filter="url(#filter0_f_530_9)">
<path d="M32 6L57.1147 20.1033V48.31L32 62.4134L6.88526 48.31V20.1033L32 6Z" fill="url(#paint0_linear_530_9)"/>
</g>
<path d="M32 6L57.1147 20.1033V48.31L32 62.4134L6.88526 48.31V20.1033L32 6Z" fill="url(#paint1_linear_530_9)"/>
<path d="M25.1871 30.3066L20.7185 34.0002L25.1871 37.6937C25.3353 37.8142 25.4579 37.9626 25.548 38.1303C25.6382 38.2981 25.6939 38.4818 25.712 38.6711C25.7302 38.8603 25.7104 39.0512 25.6538 39.2328C25.5972 39.4144 25.5049 39.583 25.3823 39.7291C25.2597 39.8751 25.1091 39.9956 24.9393 40.0837C24.7695 40.1717 24.5838 40.2255 24.3929 40.242C24.202 40.2585 24.0097 40.2373 23.8271 40.1798C23.6445 40.1222 23.4752 40.0293 23.329 39.9065L17.5225 35.1065C17.359 34.9714 17.2274 34.8022 17.1371 34.611C17.0468 34.4198 17 34.2113 17 34.0002C17 33.789 17.0468 33.5805 17.1371 33.3893C17.2274 33.1981 17.359 33.0289 17.5225 32.8938L23.329 28.0938C23.6252 27.853 24.0054 27.7381 24.3866 27.7741C24.7679 27.8101 25.1194 27.9941 25.3645 28.286C25.6096 28.5779 25.7285 28.954 25.6953 29.3325C25.662 29.711 25.4794 30.0611 25.1871 30.3066ZM46.4775 32.8938L40.671 28.0938C40.5248 27.971 40.3555 27.8781 40.1729 27.8206C39.9903 27.763 39.798 27.7418 39.6071 27.7583C39.4162 27.7748 39.2305 27.8286 39.0607 27.9166C38.8909 28.0047 38.7403 28.1252 38.6177 28.2712C38.4951 28.4173 38.4028 28.586 38.3462 28.7675C38.2896 28.9491 38.2698 29.14 38.288 29.3293C38.3061 29.5185 38.3618 29.7023 38.452 29.87C38.5421 30.0377 38.6647 30.1861 38.8129 30.3066L43.2815 34.0002L38.8129 37.6937C38.6647 37.8142 38.5421 37.9626 38.452 38.1303C38.3618 38.2981 38.3061 38.4818 38.288 38.6711C38.2698 38.8603 38.2896 39.0512 38.3462 39.2328C38.4028 39.4144 38.4951 39.583 38.6177 39.7291C38.7403 39.8751 38.8909 39.9956 39.0607 40.0837C39.2305 40.1717 39.4162 40.2255 39.6071 40.242C39.798 40.2585 39.9903 40.2373 40.1729 40.1798C40.3555 40.1222 40.5248 40.0293 40.671 39.9065L46.4775 35.1065C46.641 34.9714 46.7726 34.8022 46.8629 34.611C46.9532 34.4198 47 34.2113 47 34.0002C47 33.789 46.9532 33.5805 46.8629 33.3893C46.7726 33.1981 46.641 33.0289 46.4775 32.8938ZM36.367 22.0867C36.1878 22.0221 35.9975 21.9931 35.807 22.0014C35.6165 22.0097 35.4296 22.0552 35.2568 22.1352C35.084 22.2152 34.9288 22.3282 34.8001 22.4677C34.6713 22.6072 34.5716 22.7705 34.5065 22.9483L26.7645 44.068C26.6333 44.4269 26.651 44.8227 26.8139 45.1686C26.9768 45.5144 27.2714 45.782 27.633 45.9124C27.7918 45.9706 27.9598 46.0002 28.129 46C28.4271 46 28.7179 45.9091 28.962 45.7395C29.2061 45.5699 29.3917 45.3299 29.4935 45.052L37.2355 23.9323C37.3007 23.7545 37.3299 23.5658 37.3215 23.3768C37.3131 23.1879 37.2673 23.0024 37.1866 22.831C37.106 22.6596 36.9921 22.5057 36.8514 22.378C36.7108 22.2503 36.5462 22.1513 36.367 22.0867Z" fill="white"/>
<defs>
<filter id="filter0_f_530_9" x="0.885254" y="0" width="62.2295" height="68.4133" filterUnits="userSpaceOnUse" color-interpolation-filters="sRGB">
<feFlood flood-opacity="0" result="BackgroundImageFix"/>
<feBlend mode="normal" in="SourceGraphic" in2="BackgroundImageFix" result="shape"/>
<feGaussianBlur stdDeviation="3" result="effect1_foregroundBlur_530_9"/>
</filter>
<linearGradient id="paint0_linear_530_9" x1="7" y1="34" x2="56.5" y2="34" gradientUnits="userSpaceOnUse">
<stop stop-color="#00C8FF"/>
<stop offset="0.545" stop-color="#004E63"/>
</linearGradient>
<linearGradient id="paint1_linear_530_9" x1="7" y1="34" x2="56.5" y2="34" gradientUnits="userSpaceOnUse">
<stop stop-color="#00C8FF"/>
<stop offset="0.545" stop-color="#004E63"/>
</linearGradient>
</defs>
</svg>
