<svg width="98" height="105" viewBox="0 0 98 105" fill="none" xmlns="http://www.w3.org/2000/svg">
<g filter="url(#filter0_f_838_21)">
<path d="M49 24L74.1147 38.1033V66.31L49 80.4134L23.8853 66.31V38.1033L49 24Z" fill="#004E63"/>
</g>
<path d="M49 24L74.1147 38.1033V66.31L49 80.4134L23.8853 66.31V38.1033L49 24Z" fill="#090909"/>
<path d="M59.9339 42.9668C59.9202 42.7324 59.8211 42.5111 59.6553 42.3451C59.4896 42.179 59.2688 42.0797 59.0348 42.066C49.933 41.5306 42.6424 44.2762 39.534 49.4271C38.4565 51.1891 37.9255 53.2321 38.0084 55.2968C38.0625 56.6172 38.3307 57.92 38.8023 59.1541C38.83 59.23 38.8764 59.2977 38.9373 59.3508C38.9981 59.404 39.0714 59.4408 39.1503 59.4579C39.2292 59.475 39.3111 59.4718 39.3884 59.4486C39.4658 59.4255 39.536 59.3831 39.5925 59.3254L49.7548 48.9875C49.8437 48.8985 49.9492 48.8278 50.0653 48.7796C50.1814 48.7315 50.3058 48.7067 50.4315 48.7067C50.5572 48.7067 50.6816 48.7315 50.7977 48.7796C50.9138 48.8278 51.0193 48.8985 51.1082 48.9875C51.1971 49.0765 51.2676 49.1822 51.3157 49.2986C51.3637 49.4149 51.3885 49.5396 51.3885 49.6655C51.3885 49.7914 51.3637 49.9161 51.3157 50.0324C51.2676 50.1488 51.1971 50.2545 51.1082 50.3435L40.0026 61.6385L38.3061 63.3383C38.1297 63.5105 38.0243 63.7428 38.0111 63.9891C37.9978 64.2355 38.0775 64.4779 38.2344 64.668C38.3203 64.7677 38.4258 64.8486 38.5443 64.9056C38.6628 64.9626 38.7918 64.9945 38.9232 64.9994C39.0546 65.0042 39.1855 64.9818 39.3079 64.9337C39.4302 64.8855 39.5414 64.8126 39.6344 64.7195L41.6417 62.7082C43.3323 63.5276 45.0383 63.9744 46.7301 64.0343C46.8632 64.0391 46.9959 64.0415 47.1282 64.0415C49.0547 64.0465 50.9447 63.5148 52.5871 62.5058C57.728 59.3913 60.4695 52.0877 59.9339 42.9668Z" fill="url(#paint0_linear_838_21)"/>
<defs>
<filter id="filter0_f_838_21" x="0.0852547" y="0.200001" width="97.8295" height="104.013" filterUnits="userSpaceOnUse" color-interpolation-filters="sRGB">
<feFlood flood-opacity="0" result="BackgroundImageFix"/>
<feBlend mode="normal" in="SourceGraphic" in2="BackgroundImageFix" result="shape"/>
<feGaussianBlur stdDeviation="11.9" result="effect1_foregroundBlur_838_21"/>
</filter>
<linearGradient id="paint0_linear_838_21" x1="49" y1="42" x2="49" y2="65" gradientUnits="userSpaceOnUse">
<stop stop-color="#00C8FF"/>
<stop offset="1" stop-color="#004E63"/>
</linearGradient>
</defs>
</svg>
