<svg width="212" height="16" viewBox="0 0 212 16" fill="none" xmlns="http://www.w3.org/2000/svg">
<path d="M12.207 14.5117C11.0026 14.9023 9.70052 15.0977 8.30078 15.0977C3.41797 15.0977 0.976562 12.6725 0.976562 7.82227C0.976562 3.23242 3.41797 0.9375 8.30078 0.9375C9.70052 0.9375 11.0026 1.13281 12.207 1.52344V3.08594C11.0026 2.63021 9.76562 2.40234 8.49609 2.40234C4.6875 2.40234 2.7832 4.20898 2.7832 7.82227C2.7832 11.696 4.6875 13.6328 8.49609 13.6328C9.76562 13.6328 11.0026 13.4049 12.207 12.9492V14.5117ZM22.0113 7.97852C22.0113 11.748 23.7138 13.6328 27.1187 13.6328C30.4521 13.6328 32.1187 11.748 32.1187 7.97852C32.1187 4.26107 30.4521 2.40234 27.1187 2.40234C23.7138 2.40234 22.0113 4.26107 22.0113 7.97852ZM20.107 8.03711C20.107 3.30404 22.4443 0.9375 27.1187 0.9375C31.7216 0.9375 34.023 3.30404 34.023 8.03711C34.023 12.7441 31.7216 15.0977 27.1187 15.0977C22.4443 15.0977 20.107 12.7441 20.107 8.03711ZM47.343 13.5352C50.7609 13.5352 52.4699 11.569 52.4699 7.63672C52.4699 4.21224 50.7609 2.5 47.343 2.5H44.0715V13.5352H47.343ZM42.2648 15V1.03516H47.343C51.9654 1.03516 54.2766 3.23568 54.2766 7.63672C54.2766 12.5456 51.9654 15 47.343 15H42.2648ZM71.4441 1.03516V2.5H64.1199V7.1875H71.1023V8.65234H64.1199V13.5352H71.5906V15H62.3133V1.03516H71.4441Z" fill="white"/>
<path d="M93.8066 1.03516L91.4629 12.7539H97.0098L96.5605 15H88.4258L91.2188 1.03516H93.8066ZM116.765 1.03516L116.316 3.26172H109.324L108.621 6.77734H115.281L114.822 9.0918H108.132L107.4 12.7539H114.558L114.109 15H104.412L107.205 1.03516H116.765ZM133.161 14.3555C131.937 14.8503 130.479 15.0977 128.786 15.0977C123.858 15.0977 121.879 12.6725 122.849 7.82227C123.767 3.23242 126.732 0.9375 131.745 0.9375C133.275 0.9375 134.597 1.16536 135.71 1.62109L135.241 3.96484C134.141 3.44401 132.891 3.18359 131.491 3.18359C128.139 3.18359 126.153 4.72982 125.534 7.82227C124.864 11.1751 126.111 12.8516 129.275 12.8516C129.743 12.8516 130.293 12.7734 130.925 12.6172L131.736 8.55469H134.323L133.161 14.3555ZM153.229 1.03516L152.78 3.26172H145.788L145.085 6.77734H151.745L151.286 9.0918H144.596L143.864 12.7539H151.022L150.573 15H140.876L143.669 1.03516H153.229ZM158.366 15L161.159 1.03516H163.746L169.127 11.0156L171.12 1.03516H173.61L170.817 15H168.229L162.897 4.80469L160.856 15H158.366ZM185.074 12.7539C187.971 12.7539 189.762 11.0482 190.445 7.63672C191.025 4.73307 189.866 3.28125 186.969 3.28125H184.088L182.193 12.7539H185.074ZM179.156 15L181.949 1.03516H187.418C192.04 1.03516 193.912 3.23568 193.033 7.63672C192.05 12.5456 189.247 15 184.625 15H179.156ZM199.039 14.4141L199.507 12.0703C200.803 12.5911 202.333 12.8516 204.097 12.8516C206.239 12.8516 207.453 12.1354 207.74 10.7031C207.948 9.66146 207.395 9.14062 206.08 9.14062H203.892C201.034 9.14062 199.865 7.83854 200.386 5.23438C200.959 2.36979 203.28 0.9375 207.349 0.9375C208.912 0.9375 210.347 1.16536 211.656 1.62109L211.187 3.96484C209.892 3.44401 208.462 3.18359 206.9 3.18359C204.556 3.18359 203.248 3.86719 202.974 5.23438C202.766 6.27604 203.228 6.79688 204.361 6.79688H206.548C209.589 6.79688 210.849 8.09896 210.328 10.7031C209.742 13.6328 207.515 15.0977 203.648 15.0977C201.884 15.0977 200.347 14.8698 199.039 14.4141Z" fill="url(#paint0_linear_191_168)"/>
<defs>
<linearGradient id="paint0_linear_191_168" x1="0" y1="8" x2="212" y2="8" gradientUnits="userSpaceOnUse">
<stop stop-color="#00C8FF"/>
<stop offset="1" stop-color="#004E63"/>
</linearGradient>
</defs>
</svg>
