<svg width="130" height="104" viewBox="0 0 130 104" fill="none" xmlns="http://www.w3.org/2000/svg">
<g filter="url(#filter0_f_532_74)">
<path d="M50.6028 34.6848C51.5391 33.6394 52.9548 33.1611 54.3333 33.4246L116.824 45.368C119.7 45.9177 121.03 49.2699 119.314 51.642L88.6258 94.0461C87.756 95.2479 86.2926 95.8697 84.8238 95.6614L13.4138 85.5352C10.2479 85.0862 8.86242 81.288 10.9958 78.9061L50.6028 34.6848Z" fill="#00617B"/>
</g>
<g filter="url(#filter1_f_532_74)">
<path d="M50.6028 21.6848C51.5391 20.6394 52.9548 20.1611 54.3333 20.4246L116.824 32.368C119.7 32.9177 121.03 36.2699 119.314 38.642L88.6258 81.0461C87.756 82.2479 86.2926 82.8697 84.8238 82.6614L13.4138 72.5352C10.2479 72.0862 8.86242 68.288 10.9958 65.9061L50.6028 21.6848Z" fill="#388296"/>
</g>
<g filter="url(#filter2_f_532_74)">
<path d="M49.5744 9.55783C50.4325 8.581 51.7118 8.08217 53.0046 8.22033L118.278 15.1957C121.302 15.5188 122.874 18.9649 121.135 21.46L87.3255 69.975C86.4604 71.2163 84.9689 71.8633 83.4714 71.6468L12.3019 61.3568C9.15938 60.9025 7.77358 57.1437 9.86909 54.7581L49.5744 9.55783Z" fill="#00C8FF"/>
</g>
<path d="M51.6028 33.6848C52.5391 32.6394 53.9548 32.1611 55.3333 32.4246L117.824 44.368C120.7 44.9177 122.03 48.2699 120.314 50.642L89.6258 93.0461C88.756 94.2479 87.2926 94.8697 85.8238 94.6614L14.4138 84.5352C11.2479 84.0862 9.86242 80.288 11.9958 77.9061L51.6028 33.6848Z" fill="#00617B"/>
<path d="M51.6028 20.6848C52.5391 19.6394 53.9548 19.1611 55.3333 19.4246L117.824 31.368C120.7 31.9177 122.03 35.2699 120.314 37.642L89.6258 80.0461C88.756 81.2479 87.2926 81.8697 85.8238 81.6614L14.4138 71.5352C11.2479 71.0862 9.86242 67.288 11.9958 64.9061L51.6028 20.6848Z" fill="#388296"/>
<path d="M50.5744 8.55783C51.4325 7.581 52.7118 7.08217 54.0046 7.22033L119.278 14.1957C122.302 14.5188 123.874 17.9649 122.135 20.46L88.3255 68.975C87.4604 70.2163 85.9689 70.8633 84.4714 70.6468L13.3019 60.3568C10.1594 59.9025 8.77358 56.1437 10.8691 53.7581L50.5744 8.55783Z" fill="#00C8FF"/>
<mask id="mask0_532_74" style="mask-type:luminance" maskUnits="userSpaceOnUse" x="56" y="28" width="20" height="18">
<path d="M75.5973 33.501L59.7139 28.472L56.0321 40.1005L71.9156 45.1294L75.5973 33.501Z" fill="white"/>
</mask>
<g mask="url(#mask0_532_74)">
<path fill-rule="evenodd" clip-rule="evenodd" d="M63.9123 37.0745L62.0723 33.5296C61.5097 32.4456 60.1748 32.023 59.0908 32.5856C58.0069 33.1483 57.5842 34.4831 58.1469 35.5671L60.9563 40.9797C61.2492 41.5442 61.7516 41.9293 62.3189 42.0894C62.8773 42.2888 63.5139 42.2643 64.0817 41.9697L73.8404 36.9045C74.9243 36.3418 75.347 35.007 74.7843 33.923C74.2217 32.839 72.8869 32.4163 71.8029 32.979L63.9123 37.0745Z" fill="white"/>
</g>
<defs>
<filter id="filter0_f_532_74" x="1.9707" y="25.3534" width="126.106" height="78.3477" filterUnits="userSpaceOnUse" color-interpolation-filters="sRGB">
<feFlood flood-opacity="0" result="BackgroundImageFix"/>
<feBlend mode="normal" in="SourceGraphic" in2="BackgroundImageFix" result="shape"/>
<feGaussianBlur stdDeviation="4" result="effect1_foregroundBlur_532_74"/>
</filter>
<filter id="filter1_f_532_74" x="1.9707" y="12.3534" width="126.106" height="78.3477" filterUnits="userSpaceOnUse" color-interpolation-filters="sRGB">
<feFlood flood-opacity="0" result="BackgroundImageFix"/>
<feBlend mode="normal" in="SourceGraphic" in2="BackgroundImageFix" result="shape"/>
<feGaussianBlur stdDeviation="4" result="effect1_foregroundBlur_532_74"/>
</filter>
<filter id="filter2_f_532_74" x="0.869629" y="0.197754" width="128.988" height="79.4904" filterUnits="userSpaceOnUse" color-interpolation-filters="sRGB">
<feFlood flood-opacity="0" result="BackgroundImageFix"/>
<feBlend mode="normal" in="SourceGraphic" in2="BackgroundImageFix" result="shape"/>
<feGaussianBlur stdDeviation="4" result="effect1_foregroundBlur_532_74"/>
</filter>
</defs>
</svg>
