<svg width="44" height="54" viewBox="0 0 44 54" fill="none" xmlns="http://www.w3.org/2000/svg">
<path d="M25.845 0.462462C25.5984 0.25748 25.3062 0.114779 24.993 0.0463901C24.6797 -0.0219988 24.3546 -0.0140712 24.0451 0.0695043C23.7355 0.15308 23.4506 0.309854 23.2143 0.526609C22.9781 0.743363 22.7974 1.01375 22.6875 1.31496L17.1875 16.4175L11.1475 10.565C10.9447 10.3682 10.7024 10.2167 10.4368 10.1204C10.1711 10.0241 9.88806 9.98513 9.60626 10.0062C9.32447 10.0272 9.05032 10.1077 8.8019 10.2423C8.55347 10.377 8.33641 10.5628 8.165 10.7875C2.75 17.8825 0 25.02 0 32C0 37.8347 2.31785 43.4305 6.44365 47.5563C10.5695 51.6821 16.1652 54 22 54C27.8348 54 33.4305 51.6821 37.5564 47.5563C41.6822 43.4305 44 37.8347 44 32C44 17.1375 31.3025 4.99996 25.845 0.462462ZM35.9725 34.335C35.4539 37.2317 34.0602 39.9001 31.9791 41.9807C29.898 44.0614 27.2294 45.4545 24.3325 45.9725C24.2227 45.9913 24.1114 46.0005 24 46C23.4983 45.9998 23.015 45.8112 22.6459 45.4714C22.2768 45.1316 22.0489 44.6655 22.0074 44.1655C21.9659 43.6656 22.1137 43.1683 22.4217 42.7722C22.7297 42.3762 23.1752 42.1104 23.67 42.0275C27.8125 41.33 31.3275 37.815 32.03 33.665C32.1188 33.1418 32.4119 32.6754 32.8446 32.3683C33.2774 32.0612 33.8144 31.9386 34.3375 32.0275C34.8606 32.1163 35.3271 32.4093 35.6341 32.8421C35.9412 33.2748 36.0638 33.8118 35.975 34.335H35.9725Z" fill="url(#paint0_linear_530_10)"/>
<path d="M25.845 0.462462C25.5985 0.25748 25.3062 0.114779 24.993 0.0463901C24.6797 -0.0219988 24.3546 -0.0140712 24.0451 0.0695043C23.7355 0.15308 23.4506 0.309854 23.2143 0.526609C22.9781 0.743364 22.7974 1.01375 22.6875 1.31496L17.1875 16.4175L11.1475 10.565C10.9447 10.3682 10.7024 10.2167 10.4368 10.1204C10.1711 10.0241 9.88806 9.98513 9.60626 10.0062C9.32447 10.0272 9.05032 10.1077 8.8019 10.2423C8.55347 10.377 8.33641 10.5628 8.165 10.7875C2.75 17.8825 0 25.02 0 32C0 37.8347 2.31785 43.4305 6.44365 47.5563C10.5695 51.6821 16.1652 54 22 54C27.8348 54 33.4306 51.6821 37.5564 47.5563C41.6822 43.4305 44 37.8347 44 32C44 17.1375 31.3025 4.99996 25.845 0.462462ZM35.9725 34.335C35.4539 37.2317 34.0602 39.9001 31.9791 41.9807C29.898 44.0614 27.2294 45.4545 24.3325 45.9725C24.2227 45.9913 24.1114 46.0005 24 46C23.4983 45.9998 23.015 45.8112 22.6459 45.4714C22.2768 45.1316 22.0489 44.6655 22.0074 44.1655C21.9659 43.6656 22.1137 43.1683 22.4217 42.7722C22.7297 42.3762 23.1752 42.1104 23.67 42.0275C27.8125 41.33 31.3275 37.815 32.03 33.665C32.1188 33.1418 32.4119 32.6754 32.8446 32.3683C33.2774 32.0612 33.8144 31.9386 34.3375 32.0275C34.8606 32.1163 35.3271 32.4093 35.6341 32.8421C35.9412 33.2748 36.0638 33.8118 35.975 34.335H35.9725Z" fill="url(#paint1_linear_530_10)"/>
<defs>
<linearGradient id="paint0_linear_530_10" x1="-5.0149e-07" y1="32" x2="44" y2="32" gradientUnits="userSpaceOnUse">
<stop stop-color="#00C8FF"/>
<stop offset="0.59" stop-color="#004E63" stop-opacity="0.76"/>
</linearGradient>
<linearGradient id="paint1_linear_530_10" x1="-5.0149e-07" y1="32" x2="44" y2="32" gradientUnits="userSpaceOnUse">
<stop stop-color="#EC2352"/>
<stop offset="1" stop-color="#FFB733"/>
</linearGradient>
</defs>
</svg>
