<svg width="98" height="105" viewBox="0 0 98 105" fill="none" xmlns="http://www.w3.org/2000/svg">
<g filter="url(#filter0_f_624_37)">
<path d="M49 24L74.1147 38.1033V66.31L49 80.4134L23.8853 66.31V38.1033L49 24Z" fill="#E44D26"/>
</g>
<path d="M49 24L74.1147 38.1033V66.31L49 80.4134L23.8853 66.31V38.1033L49 24Z" fill="#090909"/>
<path d="M50.2263 40L49.0213 53.4985L43.605 55L38.2037 53.5005L37 40H50.2263Z" fill="#E44D26"/>
<path d="M43.6133 53.8523L47.9899 52.6389L49.0196 41.1039H43.6133V53.8523Z" fill="#F16529"/>
<path d="M41.271 44.4154H43.6134V42.7596H39.4614L39.501 43.2039L39.908 47.7668H43.6134V46.111H41.4223L41.271 44.4154V44.4154ZM41.6442 48.5947H39.982L40.214 51.1945L43.6057 52.136L43.6134 52.134V50.4112L43.6061 50.4132L41.7621 49.9152L41.6442 48.5947V48.5947Z" fill="#EBEBEB"/>
<path d="M43.6075 47.7668H45.6464L45.4542 49.9142L43.6074 50.4126V52.1353L47.0019 51.1945L47.0268 50.9148L47.4159 46.5556L47.4563 46.111H43.6075V47.7668ZM43.6075 44.4114V44.4154H47.607L47.6402 44.0433L47.7156 43.2039L47.7552 42.7596H43.6075V44.4114V44.4114Z" fill="white"/>
<path d="M54.4921 63.7434L49.1831 62.2696L48 49H61L59.8157 62.2675L54.4921 63.7434V63.7434Z" fill="#264DE4"/>
<path d="M58.8018 61.4227L59.8138 50.085H54.5V62.6153L58.8018 61.4227V61.4227Z" fill="#2965F1"/>
<path d="M50.7121 55.0065L50.8579 56.634H54.4998V55.0065H50.7121ZM50.4189 51.7125L50.5669 53.34H54.4998V51.7125H50.4189V51.7125ZM54.4998 59.2332L54.4927 59.2351L52.6802 58.7457L52.5643 57.4477H50.9306L51.1586 60.0031L54.4924 60.9285L54.4998 60.9265V59.2332Z" fill="#EBEBEB"/>
<path d="M58.2772 55.0065L58.571 51.7125H54.4942V53.34H56.7874L56.6393 55.0065H54.4942V56.634H56.4982L56.3093 58.7447L54.4941 59.2346V60.9277L57.8305 60.0031L57.855 59.7281L58.2375 55.4435L58.2772 55.0065V55.0065Z" fill="white"/>
<defs>
<filter id="filter0_f_624_37" x="0.0852547" y="0.200001" width="97.8295" height="104.013" filterUnits="userSpaceOnUse" color-interpolation-filters="sRGB">
<feFlood flood-opacity="0" result="BackgroundImageFix"/>
<feBlend mode="normal" in="SourceGraphic" in2="BackgroundImageFix" result="shape"/>
<feGaussianBlur stdDeviation="11.9" result="effect1_foregroundBlur_624_37"/>
</filter>
</defs>
</svg>
