<svg width="110" height="103" viewBox="0 0 110 103" fill="none" xmlns="http://www.w3.org/2000/svg">
<g filter="url(#filter0_f_547_6)">
<rect x="25" y="25" width="60" height="53" rx="24" fill="#FF4500"/>
</g>
<rect x="23" y="24" width="60" height="54" rx="27" fill="#090909"/>
<path d="M54.2263 39L53.0213 52.4985L47.605 54L42.2037 52.5005L41 39H54.2263Z" fill="#E44D26"/>
<path d="M47.6132 52.8523L51.9898 51.6389L53.0194 40.1039H47.6132V52.8523Z" fill="#F16529"/>
<path d="M45.2707 43.4154H47.6131V41.7596H43.4612L43.5008 42.2039L43.9078 46.7668H47.6131V45.111H45.4221L45.2707 43.4154ZM45.6439 47.5947H43.9818L44.2137 50.1945L47.6055 51.136L47.6131 51.134V49.4112L47.6059 49.4132L45.7618 48.9152L45.6439 47.5947Z" fill="#EBEBEB"/>
<path d="M47.6075 46.7668H49.6464L49.4542 48.9142L47.6074 49.4126V51.1353L51.0019 50.1945L51.0268 49.9148L51.4159 45.5556L51.4563 45.111H47.6075V46.7668ZM47.6075 43.4114V43.4154H51.607L51.6402 43.0433L51.7156 42.2039L51.7552 41.7596H47.6075V43.4114V43.4114Z" fill="white"/>
<path d="M58.4921 62.7434L53.1831 61.2696L52 48H65L63.8157 61.2675L58.4921 62.7434Z" fill="#264DE4"/>
<path d="M62.8018 60.4227L63.8138 49.085H58.5V61.6153L62.8018 60.4227Z" fill="#2965F1"/>
<path d="M54.7122 54.0065L54.858 55.634H58.5V54.0065H54.7122ZM54.4191 50.7125L54.567 52.34H58.5V50.7125H54.4191ZM58.5 58.2332L58.4928 58.2351L56.6803 57.7457L56.5645 56.4477H54.9307L55.1587 59.0031L58.4925 59.9285L58.5 59.9265V58.2332Z" fill="#EBEBEB"/>
<path d="M62.2774 54.0065L62.5712 50.7125H58.4944V52.34H60.7877L60.6396 54.0065H58.4944V55.634H60.4985L60.3095 57.7447L58.4944 58.2346V59.9277L61.8308 59.0031L61.8552 58.7281L62.2377 54.4435L62.2774 54.0065Z" fill="white"/>
<defs>
<filter id="filter0_f_547_6" x="0" y="0" width="110" height="103" filterUnits="userSpaceOnUse" color-interpolation-filters="sRGB">
<feFlood flood-opacity="0" result="BackgroundImageFix"/>
<feBlend mode="normal" in="SourceGraphic" in2="BackgroundImageFix" result="shape"/>
<feGaussianBlur stdDeviation="12.5" result="effect1_foregroundBlur_547_6"/>
</filter>
</defs>
</svg>
