<svg width="118" height="88" viewBox="0 0 118 88" fill="none" xmlns="http://www.w3.org/2000/svg">
<path d="M73.1916 26.721C72.2531 25.655 70.8198 25.1666 69.4257 25.4377L8.09521 37.3632C5.2402 37.9183 3.91334 41.2382 5.59922 43.6082L35.7617 86.011C36.6304 87.2323 38.1089 87.8655 39.5923 87.6515L109.686 77.5391C112.831 77.0854 114.217 73.3221 112.117 70.937L73.1916 26.721Z" fill="#4A4A4A"/>
<path d="M73.1916 13.721C72.2531 12.655 70.8198 12.1666 69.4257 12.4377L8.09521 24.3632C5.2402 24.9183 3.91334 28.2382 5.59922 30.6082L35.7617 73.011C36.6304 74.2323 38.1089 74.8655 39.5923 74.6515L109.686 64.5391C112.831 64.0854 114.217 60.3221 112.117 57.937L73.1916 13.721Z" fill="#717171"/>
<path d="M74.1951 1.58864C73.3358 0.593884 72.0427 0.0847845 70.7359 0.226799L6.64697 7.19162C3.64046 7.51835 2.07001 10.9347 3.77953 13.4293L37.0229 61.9405C37.8866 63.2008 39.3928 63.8591 40.9044 63.6368L110.793 53.3607C113.915 52.9016 115.301 49.1768 113.238 46.7885L74.1951 1.58864Z" fill="#A6A6A6"/>
</svg>
