<svg width="120" height="88" viewBox="0 0 120 88" fill="none" xmlns="http://www.w3.org/2000/svg">
<path d="M45.6028 26.6848C46.5391 25.6394 47.9548 25.1611 49.3333 25.4246L111.824 37.368C114.7 37.9177 116.03 41.2699 114.314 43.642L83.6258 86.0461C82.7561 87.2479 81.2926 87.8697 79.8238 87.6614L8.41377 77.5352C5.24787 77.0862 3.86242 73.288 5.99576 70.9061L45.6028 26.6848Z" fill="#4A4A4A"/>
<path d="M45.6028 13.6848C46.5391 12.6394 47.9548 12.1611 49.3333 12.4246L111.824 24.368C114.7 24.9177 116.03 28.2699 114.314 30.642L83.6258 73.0461C82.7561 74.2479 81.2926 74.8697 79.8238 74.6614L8.41377 64.5352C5.24787 64.0862 3.86242 60.288 5.99576 57.9061L45.6028 13.6848Z" fill="#717171"/>
<path d="M44.5744 1.55783C45.4325 0.580999 46.7118 0.0821723 48.0046 0.220328L113.278 7.19568C116.302 7.51884 117.874 10.9649 116.135 13.46L82.3255 61.975C81.4604 63.2163 79.9689 63.8633 78.4714 63.6468L7.30191 53.3568C4.15938 52.9025 2.77358 49.1437 4.86909 46.7581L44.5744 1.55783Z" fill="#A6A6A6"/>
</svg>
