<svg width="93" height="99" viewBox="0 0 93 99" fill="none" xmlns="http://www.w3.org/2000/svg">
<g filter="url(#filter0_d_556_19)">
<path d="M46.5 0L86.7702 22.614V67.8419L46.5 90.4559L6.22982 67.8419V22.614L46.5 0Z" fill="url(#paint0_linear_556_19)"/>
</g>
<path d="M54.3999 36.4444V53.5556C54.3999 54.2039 54.147 54.8256 53.6969 55.284C53.2468 55.7425 52.6364 56 51.9999 56H30.4C29.7635 56 29.153 55.7425 28.7029 55.284C28.2529 54.8256 28 54.2039 28 53.5556V36.4444C28 35.7961 28.2529 35.1744 28.7029 34.716C29.153 34.2575 29.7635 34 30.4 34H51.9999C52.6364 34 53.2468 34.2575 53.6969 34.716C54.147 35.1744 54.3999 35.7961 54.3999 36.4444ZM63.0998 36.4826C62.9305 36.4404 62.7544 36.4352 62.583 36.4674C62.4116 36.4995 62.2488 36.5682 62.1053 36.669L57.0669 40.0897C56.9847 40.1456 56.9173 40.2212 56.8707 40.31C56.8241 40.3987 56.7998 40.4978 56.7999 40.5985V49.4015C56.7998 49.5022 56.8241 49.6013 56.8707 49.69C56.9173 49.7788 56.9847 49.8544 57.0669 49.9103L62.1338 53.3508C62.3235 53.4797 62.5453 53.5509 62.7732 53.556C63.0011 53.5611 63.2258 53.5 63.4208 53.3799C63.6013 53.263 63.7493 53.1009 63.8507 52.9091C63.9521 52.7173 64.0034 52.5022 63.9998 52.2844V37.6667C64 37.3956 63.9116 37.1322 63.7487 36.9178C63.5858 36.7035 63.3575 36.5504 63.0998 36.4826Z" fill="#A5A5A5"/>
<defs>
<filter id="filter0_d_556_19" x="2.22998" y="0" width="88.54" height="98.4559" filterUnits="userSpaceOnUse" color-interpolation-filters="sRGB">
<feFlood flood-opacity="0" result="BackgroundImageFix"/>
<feColorMatrix in="SourceAlpha" type="matrix" values="0 0 0 0 0 0 0 0 0 0 0 0 0 0 0 0 0 0 127 0" result="hardAlpha"/>
<feOffset dy="4"/>
<feGaussianBlur stdDeviation="2"/>
<feComposite in2="hardAlpha" operator="out"/>
<feColorMatrix type="matrix" values="0 0 0 0 0 0 0 0 0 0 0 0 0 0 0 0 0 0 0.25 0"/>
<feBlend mode="normal" in2="BackgroundImageFix" result="effect1_dropShadow_556_19"/>
<feBlend mode="normal" in="SourceGraphic" in2="effect1_dropShadow_556_19" result="shape"/>
</filter>
<linearGradient id="paint0_linear_556_19" x1="88" y1="45" x2="7.5" y2="42.5" gradientUnits="userSpaceOnUse">
<stop offset="0.49" stop-color="#1A1A1E"/>
<stop offset="1" stop-color="#3A3A42"/>
</linearGradient>
</defs>
</svg>
