<svg width="98" height="105" viewBox="0 0 98 105" fill="none" xmlns="http://www.w3.org/2000/svg">
<g filter="url(#filter0_f_626_77)">
<path d="M49 24L74.1147 38.1033V66.31L49 80.4134L23.8853 66.31V38.1033L49 24Z" fill="white"/>
</g>
<path d="M49 24L74.1147 38.1033V66.31L49 80.4134L23.8853 66.31V38.1033L49 24Z" fill="#090909"/>
<path d="M49 63C55.0751 63 60 58.0751 60 52C60 45.9249 55.0751 41 49 41C42.9249 41 38 45.9249 38 52C38 58.0751 42.9249 63 49 63Z" fill="black"/>
<path d="M56.2733 60.2524L46.4507 47.6H44.6001V56.3964H46.0806V49.4801L55.1109 61.1477C55.5178 60.8754 55.9062 60.5763 56.2733 60.2524Z" fill="url(#paint0_linear_626_77)"/>
<path d="M52.0557 47.6H53.5223V56.4H52.0557V47.6Z" fill="url(#paint1_linear_626_77)"/>
<defs>
<filter id="filter0_f_626_77" x="0.0852547" y="0.200001" width="97.8295" height="104.013" filterUnits="userSpaceOnUse" color-interpolation-filters="sRGB">
<feFlood flood-opacity="0" result="BackgroundImageFix"/>
<feBlend mode="normal" in="SourceGraphic" in2="BackgroundImageFix" result="shape"/>
<feGaussianBlur stdDeviation="11.9" result="effect1_foregroundBlur_626_77"/>
</filter>
<linearGradient id="paint0_linear_626_77" x1="51.3223" y1="55.2388" x2="55.6612" y2="60.6166" gradientUnits="userSpaceOnUse">
<stop stop-color="white"/>
<stop offset="1" stop-color="white" stop-opacity="0"/>
</linearGradient>
<linearGradient id="paint1_linear_626_77" x1="52.7889" y1="47.6" x2="52.7644" y2="54.0625" gradientUnits="userSpaceOnUse">
<stop stop-color="white"/>
<stop offset="1" stop-color="white" stop-opacity="0"/>
</linearGradient>
</defs>
</svg>
