<svg width="98" height="105" viewBox="0 0 98 105" fill="none" xmlns="http://www.w3.org/2000/svg">
<g filter="url(#filter0_f_626_98)">
<path d="M49 24L74.1147 38.1033V66.31L49 80.4134L23.8853 66.31V38.1033L49 24Z" fill="#BFF21A"/>
</g>
<path d="M49 24L74.1147 38.1033V66.31L49 80.4134L23.8853 66.31V38.1033L49 24Z" fill="#090909"/>
<path d="M46.9355 56.5002C46.8462 56.1542 46.6658 55.8384 46.4131 55.5856C46.1604 55.3329 45.8445 55.1525 45.4985 55.0632L39.3635 53.4812C39.2588 53.4515 39.1667 53.3885 39.1011 53.3017C39.0355 53.2149 39 53.1091 39 53.0002C39 52.8914 39.0355 52.7856 39.1011 52.6988C39.1667 52.612 39.2588 52.549 39.3635 52.5192L45.4985 50.9362C45.8444 50.8471 46.1602 50.6668 46.4129 50.4143C46.6656 50.1618 46.846 49.8461 46.9355 49.5002L48.5175 43.3652C48.5469 43.2602 48.6099 43.1676 48.6968 43.1016C48.7837 43.0357 48.8899 43 48.999 43C49.1081 43 49.2142 43.0357 49.3012 43.1016C49.3881 43.1676 49.4511 43.2602 49.4805 43.3652L51.0615 49.5002C51.1508 49.8463 51.3311 50.1621 51.5839 50.4149C51.8366 50.6676 52.1524 50.848 52.4985 50.9372L58.6335 52.5182C58.739 52.5473 58.832 52.6103 58.8983 52.6973C58.9646 52.7844 59.0005 52.8908 59.0005 53.0002C59.0005 53.1097 58.9646 53.2161 58.8983 53.3032C58.832 53.3902 58.739 53.4531 58.6335 53.4822L52.4985 55.0632C52.1524 55.1525 51.8366 55.3329 51.5839 55.5856C51.3311 55.8384 51.1508 56.1542 51.0615 56.5002L49.4795 62.6353C49.4501 62.7403 49.3871 62.8329 49.3002 62.8989C49.2132 62.9648 49.1071 63.0005 48.998 63.0005C48.8889 63.0005 48.7827 62.9648 48.6958 62.8989C48.6089 62.8329 48.5459 62.7403 48.5165 62.6353L46.9355 56.5002Z" stroke="#BFF21A" stroke-width="2" stroke-linecap="round" stroke-linejoin="round"/>
<path d="M56.9985 44.0002V48.0002" stroke="#BFF21A" stroke-width="2" stroke-linecap="round" stroke-linejoin="round"/>
<path d="M58.9985 46.0002H54.9985" stroke="#BFF21A" stroke-width="2" stroke-linecap="round" stroke-linejoin="round"/>
<path d="M40.9985 58.0002V60.0002" stroke="#BFF21A" stroke-width="2" stroke-linecap="round" stroke-linejoin="round"/>
<path d="M41.9985 59.0002H39.9985" stroke="#BFF21A" stroke-width="2" stroke-linecap="round" stroke-linejoin="round"/>
<defs>
<filter id="filter0_f_626_98" x="0.0852547" y="0.200001" width="97.8295" height="104.013" filterUnits="userSpaceOnUse" color-interpolation-filters="sRGB">
<feFlood flood-opacity="0" result="BackgroundImageFix"/>
<feBlend mode="normal" in="SourceGraphic" in2="BackgroundImageFix" result="shape"/>
<feGaussianBlur stdDeviation="11.9" result="effect1_foregroundBlur_626_98"/>
</filter>
</defs>
</svg>
