<svg width="98" height="105" viewBox="0 0 98 105" fill="none" xmlns="http://www.w3.org/2000/svg">
<g filter="url(#filter0_f_550_19)">
<path d="M49 24L74.1147 38.1033V66.31L49 80.4134L23.8853 66.31V38.1033L49 24Z" fill="#35BED5"/>
</g>
<path d="M49 24L74.1147 38.1033V66.31L49 80.4134L23.8853 66.31V38.1033L49 24Z" fill="#090909"/>
<path d="M49.0001 54.4937C50.3774 54.4937 51.4938 53.3772 51.4938 52C51.4938 50.6227 50.3774 49.5062 49.0001 49.5062C47.6228 49.5062 46.5063 50.6227 46.5063 52C46.5063 53.3772 47.6228 54.4937 49.0001 54.4937Z" fill="#61DAFB"/>
<path d="M58.4718 47.8875C57.9905 47.7125 57.4874 47.5375 56.9624 47.3844C57.0937 46.8594 57.203 46.3344 57.2905 45.8312C57.7499 42.9437 57.2468 40.9094 55.8468 40.1219C55.4312 39.8812 54.9718 39.7719 54.4468 39.7719C52.9155 39.7719 50.9687 40.9094 48.9999 42.8125C47.0312 40.9094 45.0843 39.7719 43.553 39.7719C43.028 39.7719 42.5687 39.8812 42.153 40.1219C40.753 40.9312 40.2499 42.9656 40.7093 45.8312C40.7968 46.3344 40.9062 46.8594 41.0374 47.3844C40.5124 47.5375 40.0093 47.6906 39.528 47.8875C36.7937 48.9375 35.3062 50.3812 35.3062 52C35.3062 53.6187 36.8155 55.0625 39.528 56.1125C40.0093 56.2875 40.5124 56.4625 41.0374 56.6156C40.9062 57.1406 40.7968 57.6656 40.7093 58.1687C40.2499 61.0562 40.753 63.0906 42.153 63.8781C42.5687 64.1187 43.028 64.2281 43.553 64.2281C45.1062 64.2281 47.053 63.0906 48.9999 61.1875C50.9687 63.0906 52.9155 64.2281 54.4468 64.2281C54.9718 64.2281 55.4312 64.1187 55.8468 63.8781C57.2468 63.0687 57.7499 61.0344 57.2905 58.1687C57.203 57.6656 57.0937 57.1406 56.9624 56.6156C57.4874 56.4625 57.9905 56.3094 58.4718 56.1125C61.2062 55.0625 62.6937 53.6187 62.6937 52C62.6937 50.3812 61.2062 48.9375 58.4718 47.8875ZM55.2343 41.2156C56.1312 41.7406 56.4374 43.3594 56.0655 45.6562C55.9999 46.1156 55.8905 46.5969 55.7593 47.1C54.6218 46.8375 53.4187 46.6625 52.1499 46.5531C51.4062 45.5031 50.6405 44.5625 49.8749 43.7094C51.4937 42.1125 53.1343 41.0187 54.4687 41.0187C54.753 41.0187 55.0155 41.0844 55.2343 41.2156ZM52.7843 54.1875C52.3905 54.8875 51.9312 55.5875 51.4499 56.2875C50.6405 56.3531 49.8312 56.375 48.9999 56.375C48.1468 56.375 47.3374 56.3531 46.5499 56.2875C46.0687 55.5875 45.6312 54.8875 45.2374 54.1875C44.8218 53.4656 44.428 52.7219 44.078 52C44.428 51.2781 44.8218 50.5344 45.2374 49.8125C45.6312 49.1125 46.0905 48.4125 46.5718 47.7125C47.3812 47.6469 48.1905 47.625 49.0218 47.625C49.8749 47.625 50.6843 47.6469 51.4718 47.7125C51.953 48.4125 52.3905 49.1125 52.7843 49.8125C53.1999 50.5344 53.5937 51.2781 53.9437 52C53.5718 52.7219 53.1999 53.4437 52.7843 54.1875ZM54.5999 53.4656C54.928 54.2312 55.1905 54.975 55.4312 55.7187C54.6874 55.8937 53.8999 56.025 53.0687 56.1344C53.3312 55.7187 53.6155 55.2812 53.8562 54.8219C54.1187 54.3625 54.3593 53.9031 54.5999 53.4656ZM48.9999 59.3937C48.4749 58.825 47.9718 58.2125 47.4905 57.5781C47.9937 57.6 48.4968 57.6219 48.9999 57.6219C49.503 57.6219 50.0062 57.6 50.5093 57.5781C50.028 58.2125 49.5249 58.825 48.9999 59.3937ZM44.9312 56.1125C44.0999 56.0031 43.3124 55.8719 42.5687 55.6969C42.8093 54.975 43.0718 54.2094 43.3999 53.4437C43.6405 53.8812 43.8812 54.3406 44.1437 54.7781C44.4062 55.2594 44.6687 55.675 44.9312 56.1125ZM43.3999 50.5343C43.0718 49.7687 42.8093 49.025 42.5687 48.2812C43.3124 48.1062 44.0999 47.975 44.9312 47.8656C44.6687 48.2812 44.3843 48.7187 44.1437 49.1781C43.8812 49.6375 43.6405 50.0968 43.3999 50.5343ZM48.9999 44.6062C49.5249 45.175 50.028 45.7875 50.5093 46.4219C50.0062 46.4 49.503 46.3781 48.9999 46.3781C48.4968 46.3781 47.9937 46.4 47.4905 46.4219C47.9718 45.7875 48.4749 45.175 48.9999 44.6062ZM53.8562 49.2L53.0687 47.8875C53.8999 47.9969 54.6874 48.1281 55.4312 48.3031C55.1905 49.025 54.928 49.7906 54.5999 50.5562C54.3593 50.0969 54.1187 49.6375 53.8562 49.2ZM41.9343 45.6562C41.5624 43.3594 41.8687 41.7406 42.7655 41.2156C42.9843 41.0844 43.2468 41.0187 43.5312 41.0187C44.8437 41.0187 46.4843 42.0906 48.1249 43.7094C47.3593 44.5406 46.5937 45.5031 45.8499 46.5531C44.5812 46.6625 43.378 46.8594 42.2405 47.1C42.1093 46.5969 42.0218 46.1156 41.9343 45.6562ZM36.5312 52C36.5312 50.9719 37.778 49.8781 39.9655 49.0687C40.403 48.8937 40.8843 48.7406 41.3655 48.6094C41.7155 49.7031 42.153 50.8625 42.678 52.0219C42.153 53.1812 41.6937 54.3187 41.3655 55.4125C38.3468 54.5375 36.5312 53.225 36.5312 52ZM42.7655 62.7844C41.8687 62.2594 41.5624 60.6406 41.9343 58.3437C41.9999 57.8844 42.1093 57.4031 42.2405 56.9C43.378 57.1625 44.5812 57.3375 45.8499 57.4469C46.5937 58.4969 47.3593 59.4375 48.1249 60.2906C46.5062 61.8875 44.8655 62.9812 43.5312 62.9812C43.2468 62.9812 42.9843 62.9156 42.7655 62.7844ZM56.0655 58.3437C56.4374 60.6406 56.1312 62.2594 55.2343 62.7844C55.0155 62.9156 54.753 62.9812 54.4687 62.9812C53.1562 62.9812 51.5155 61.9094 49.8749 60.2906C50.6405 59.4594 51.4062 58.4969 52.1499 57.4469C53.4187 57.3375 54.6218 57.1406 55.7593 56.9C55.8905 57.4031 55.978 57.8844 56.0655 58.3437ZM58.0343 54.9312C57.5968 55.1062 57.1155 55.2594 56.6343 55.3906C56.2843 54.2969 55.8468 53.1375 55.3218 51.9781C55.8468 50.8187 56.3062 49.6812 56.6343 48.5875C59.653 49.4625 61.4687 50.775 61.4687 52C61.4687 53.0281 60.1999 54.1219 58.0343 54.9312Z" fill="#61DAFB"/>
<defs>
<filter id="filter0_f_550_19" x="0.0852547" y="0.200001" width="97.8295" height="104.013" filterUnits="userSpaceOnUse" color-interpolation-filters="sRGB">
<feFlood flood-opacity="0" result="BackgroundImageFix"/>
<feBlend mode="normal" in="SourceGraphic" in2="BackgroundImageFix" result="shape"/>
<feGaussianBlur stdDeviation="11.9" result="effect1_foregroundBlur_550_19"/>
</filter>
</defs>
</svg>
