<svg width="28" height="25" viewBox="0 0 28 25" fill="none" xmlns="http://www.w3.org/2000/svg">
<path d="M13.6939 14.7219C15.0712 14.7219 16.1877 13.6054 16.1877 12.2281C16.1877 10.8509 15.0712 9.73438 13.6939 9.73438C12.3167 9.73438 11.2002 10.8509 11.2002 12.2281C11.2002 13.6054 12.3167 14.7219 13.6939 14.7219Z" fill="#61DAFB"/>
<path d="M23.1656 8.11562C22.6844 7.94062 22.1813 7.76563 21.6562 7.6125C21.7875 7.0875 21.8969 6.5625 21.9844 6.05937C22.4437 3.17187 21.9406 1.1375 20.5406 0.35C20.125 0.109375 19.6656 0 19.1406 0C17.6094 0 15.6625 1.1375 13.6937 3.04062C11.725 1.1375 9.77812 0 8.24687 0C7.72187 0 7.2625 0.109375 6.84688 0.35C5.44688 1.15937 4.94375 3.19375 5.40313 6.05937C5.49063 6.5625 5.6 7.0875 5.73125 7.6125C5.20625 7.76563 4.70313 7.91875 4.22188 8.11562C1.4875 9.16562 0 10.6094 0 12.2281C0 13.8469 1.50938 15.2906 4.22188 16.3406C4.70313 16.5156 5.20625 16.6906 5.73125 16.8438C5.6 17.3688 5.49063 17.8937 5.40313 18.3969C4.94375 21.2844 5.44688 23.3188 6.84688 24.1063C7.2625 24.3469 7.72187 24.4563 8.24687 24.4563C9.8 24.4563 11.7469 23.3188 13.6937 21.4156C15.6625 23.3188 17.6094 24.4563 19.1406 24.4563C19.6656 24.4563 20.125 24.3469 20.5406 24.1063C21.9406 23.2969 22.4437 21.2625 21.9844 18.3969C21.8969 17.8937 21.7875 17.3688 21.6562 16.8438C22.1813 16.6906 22.6844 16.5375 23.1656 16.3406C25.9 15.2906 27.3875 13.8469 27.3875 12.2281C27.3875 10.6094 25.9 9.16562 23.1656 8.11562ZM19.9281 1.44375C20.825 1.96875 21.1313 3.5875 20.7594 5.88437C20.6938 6.34375 20.5844 6.825 20.4531 7.32812C19.3156 7.06562 18.1125 6.89062 16.8438 6.78125C16.1 5.73125 15.3344 4.79063 14.5687 3.9375C16.1875 2.34062 17.8281 1.24687 19.1625 1.24687C19.4469 1.24687 19.7094 1.3125 19.9281 1.44375ZM17.4781 14.4156C17.0844 15.1156 16.625 15.8156 16.1437 16.5156C15.3344 16.5813 14.525 16.6031 13.6937 16.6031C12.8406 16.6031 12.0312 16.5813 11.2437 16.5156C10.7625 15.8156 10.325 15.1156 9.93125 14.4156C9.51562 13.6938 9.12187 12.95 8.77187 12.2281C9.12187 11.5063 9.51562 10.7625 9.93125 10.0406C10.325 9.34063 10.7844 8.64063 11.2656 7.94063C12.075 7.875 12.8844 7.85313 13.7156 7.85313C14.5687 7.85313 15.3781 7.875 16.1656 7.94063C16.6469 8.64063 17.0844 9.34063 17.4781 10.0406C17.8938 10.7625 18.2875 11.5063 18.6375 12.2281C18.2656 12.95 17.8938 13.6719 17.4781 14.4156ZM19.2937 13.6937C19.6219 14.4594 19.8844 15.2031 20.125 15.9469C19.3812 16.1219 18.5937 16.2531 17.7625 16.3625C18.025 15.9469 18.3094 15.5094 18.55 15.05C18.8125 14.5906 19.0531 14.1312 19.2937 13.6937ZM13.6937 19.6219C13.1687 19.0531 12.6656 18.4406 12.1844 17.8063C12.6875 17.8281 13.1906 17.85 13.6937 17.85C14.1969 17.85 14.7 17.8281 15.2031 17.8063C14.7219 18.4406 14.2187 19.0531 13.6937 19.6219ZM9.625 16.3406C8.79375 16.2313 8.00625 16.1 7.2625 15.925C7.50312 15.2031 7.76562 14.4375 8.09375 13.6719C8.33438 14.1094 8.575 14.5687 8.8375 15.0062C9.1 15.4875 9.3625 15.9031 9.625 16.3406ZM8.09375 10.7625C7.76562 9.99687 7.50312 9.25313 7.2625 8.50938C8.00625 8.33438 8.79375 8.20312 9.625 8.09375C9.3625 8.50937 9.07812 8.94688 8.8375 9.40625C8.575 9.86562 8.33438 10.325 8.09375 10.7625ZM13.6937 4.83438C14.2187 5.40313 14.7219 6.01562 15.2031 6.65C14.7 6.62812 14.1969 6.60625 13.6937 6.60625C13.1906 6.60625 12.6875 6.62812 12.1844 6.65C12.6656 6.01562 13.1687 5.40313 13.6937 4.83438ZM18.55 9.42812L17.7625 8.11562C18.5937 8.225 19.3812 8.35625 20.125 8.53125C19.8844 9.25312 19.6219 10.0188 19.2937 10.7844C19.0531 10.325 18.8125 9.86562 18.55 9.42812ZM6.62813 5.88437C6.25625 3.5875 6.5625 1.96875 7.45937 1.44375C7.67812 1.3125 7.94062 1.24687 8.225 1.24687C9.5375 1.24687 11.1781 2.31875 12.8187 3.9375C12.0531 4.76875 11.2875 5.73125 10.5437 6.78125C9.275 6.89062 8.07187 7.0875 6.93437 7.32812C6.80312 6.825 6.71563 6.34375 6.62813 5.88437ZM1.225 12.2281C1.225 11.2 2.47188 10.1063 4.65938 9.29688C5.09688 9.12187 5.57813 8.96875 6.05938 8.8375C6.40938 9.93125 6.84687 11.0906 7.37187 12.25C6.84687 13.4094 6.3875 14.5469 6.05938 15.6406C3.04063 14.7656 1.225 13.4531 1.225 12.2281ZM7.45937 23.0125C6.5625 22.4875 6.25625 20.8688 6.62813 18.5719C6.69375 18.1125 6.80312 17.6313 6.93437 17.1281C8.07187 17.3906 9.275 17.5656 10.5437 17.675C11.2875 18.725 12.0531 19.6656 12.8187 20.5188C11.2 22.1156 9.55937 23.2094 8.225 23.2094C7.94062 23.2094 7.67812 23.1438 7.45937 23.0125ZM20.7594 18.5719C21.1313 20.8688 20.825 22.4875 19.9281 23.0125C19.7094 23.1438 19.4469 23.2094 19.1625 23.2094C17.85 23.2094 16.2094 22.1375 14.5687 20.5188C15.3344 19.6875 16.1 18.725 16.8438 17.675C18.1125 17.5656 19.3156 17.3688 20.4531 17.1281C20.5844 17.6313 20.6719 18.1125 20.7594 18.5719ZM22.7281 15.1594C22.2906 15.3344 21.8094 15.4875 21.3281 15.6188C20.9781 14.525 20.5406 13.3656 20.0156 12.2063C20.5406 11.0469 21 9.90938 21.3281 8.81563C24.3469 9.69063 26.1625 11.0031 26.1625 12.2281C26.1625 13.2563 24.8938 14.35 22.7281 15.1594Z" fill="#61DAFB"/>
</svg>
