<svg width="98" height="105" viewBox="0 0 98 105" fill="none" xmlns="http://www.w3.org/2000/svg">
<g filter="url(#filter0_f_626_59)">
<path d="M49 24L74.1147 38.1033V66.31L49 80.4134L23.8853 66.31V38.1033L49 24Z" fill="#38BDF8"/>
</g>
<path d="M49 24L74.1147 38.1033V66.31L49 80.4134L23.8853 66.31V38.1033L49 24Z" fill="#090909"/>
<path d="M49 43C44.9999 43 42.5008 44.9993 41.5 48.9996C42.9995 47.0001 44.7501 46.2502 46.7495 46.7502C47.8912 47.0347 48.707 47.8626 49.6105 48.78C51.081 50.2723 52.783 52 56.5 52C60.4998 52 62.9992 50.0004 64 45.9992C62.5002 47.9999 60.7499 48.7498 58.7502 48.2498C57.6088 47.965 56.7939 47.1374 55.8892 46.22C54.4197 44.7277 52.7181 43 49 43ZM41.5 52C37.5002 52 35.0008 53.9996 34 58.0008C35.4995 56.0001 37.2498 55.2502 39.2495 55.7502C40.3912 56.035 41.207 56.8626 42.1105 57.78C43.581 59.2723 45.283 61 49 61C52.9998 61 55.4992 59.0007 56.5 55.0004C55.0002 56.9999 53.2499 57.7498 51.2502 57.2498C50.1088 56.9653 49.2939 56.1374 48.3892 55.22C46.9197 53.7277 45.2181 52 41.5 52Z" fill="#38BDF8"/>
<defs>
<filter id="filter0_f_626_59" x="0.0852547" y="0.200001" width="97.8295" height="104.013" filterUnits="userSpaceOnUse" color-interpolation-filters="sRGB">
<feFlood flood-opacity="0" result="BackgroundImageFix"/>
<feBlend mode="normal" in="SourceGraphic" in2="BackgroundImageFix" result="shape"/>
<feGaussianBlur stdDeviation="11.9" result="effect1_foregroundBlur_626_59"/>
</filter>
</defs>
</svg>
